<?xml version="1.0" standalone="no"?>
<!DOCTYPE svg PUBLIC "-//W3C//DTD SVG 20010904//EN"
 "http://www.w3.org/TR/2001/REC-SVG-20010904/DTD/svg10.dtd">
<svg version="1.0" xmlns="http://www.w3.org/2000/svg"
 width="1600.000000pt" height="420.000000pt" viewBox="0 0 1600.000000 420.000000"
 preserveAspectRatio="xMidYMid meet">

<g transform="translate(0.000000,420.000000) scale(0.100000,-0.100000)"
fill="#000000" stroke="none">
<path d="M13704 4167 c-5 -7 -30 -28 -55 -47 -77 -60 -183 -174 -209 -223 -14
-26 -30 -47 -37 -47 -7 0 -25 17 -40 38 -15 20 -32 40 -38 44 -5 4 -46 8 -91
8 -66 0 -84 -3 -101 -20 -37 -34 -70 -83 -108 -158 -35 -70 -38 -73 -63 -66
-56 17 -89 9 -144 -34 -30 -23 -70 -48 -89 -56 -45 -19 -77 -55 -130 -146 -23
-41 -44 -77 -46 -79 -2 -3 -13 5 -26 17 -16 15 -36 22 -64 22 -25 0 -46 6 -54
16 -40 48 -147 59 -224 23 -25 -12 -51 -30 -58 -40 -7 -10 -38 -31 -68 -46
-29 -15 -55 -35 -57 -44 -2 -9 -21 -36 -43 -58 -44 -48 -48 -65 -18 -97 20
-21 20 -26 9 -75 -10 -42 -10 -62 1 -108 11 -47 23 -66 74 -117 33 -33 73 -70
88 -82 l29 -21 -37 -32 c-48 -42 -58 -63 -66 -134 -4 -33 -10 -78 -14 -101 -9
-49 10 -92 53 -123 37 -26 160 -59 252 -67 l71 -7 12 -44 c8 -30 24 -56 49
-79 21 -19 38 -36 38 -39 0 -3 -49 -5 -108 -5 -117 0 -223 15 -235 33 -4 7
-17 30 -30 51 -13 22 -28 41 -35 44 -19 6 -14 -33 8 -73 11 -20 20 -50 20 -68
0 -18 9 -47 20 -65 25 -40 25 -48 0 -79 -14 -18 -20 -41 -20 -74 0 -27 -5 -58
-12 -69 -17 -27 -3 -36 26 -17 18 12 26 27 28 54 l3 38 140 3 c97 2 168 -2
230 -14 50 -9 111 -18 138 -21 48 -6 60 -20 34 -42 -8 -6 -22 -32 -33 -57 -21
-51 -22 -51 -134 -23 -25 6 -75 13 -112 16 -65 4 -67 4 -95 -27 -15 -18 -51
-43 -80 -56 -52 -24 -83 -48 -83 -65 0 -16 20 -10 105 31 46 22 90 40 99 40 9
0 19 7 22 15 13 34 86 -2 104 -51 12 -30 42 -31 80 -4 25 18 32 18 80 7 98
-22 141 -93 125 -201 -8 -52 -29 -72 -83 -82 -19 -4 -51 -23 -74 -45 -23 -21
-50 -41 -62 -45 -11 -3 -35 -14 -53 -24 -24 -14 -48 -18 -101 -16 -72 3 -103
17 -146 65 -11 12 -25 21 -33 21 -24 0 -88 38 -101 60 -20 33 -17 91 7 138 33
66 26 92 -17 55 -22 -20 -42 -91 -42 -150 0 -41 25 -72 98 -122 17 -12 32 -27
32 -32 0 -5 -25 -25 -55 -45 -54 -36 -71 -64 -39 -64 8 0 35 14 59 30 56 39
98 39 175 0 33 -16 71 -30 84 -30 14 0 28 -4 31 -10 3 -5 -10 -44 -30 -86 -41
-87 -41 -124 0 -124 23 0 24 3 23 61 0 33 4 65 11 72 8 8 11 5 11 -14 0 -14
-5 -30 -11 -36 -8 -8 -4 -16 15 -28 31 -21 56 -14 56 16 0 22 0 22 20 4 20
-18 21 -18 40 1 18 17 18 23 8 51 -10 27 -9 37 8 69 37 71 64 44 43 -42 -6
-27 -13 -83 -15 -124 -1 -41 -7 -88 -13 -103 -17 -44 -14 -75 9 -82 11 -3 20
-11 20 -16 0 -21 -40 -86 -72 -115 -69 -66 -216 -119 -310 -112 -55 4 -64 8
-95 41 -18 20 -40 37 -49 37 -36 0 -54 20 -54 60 0 34 -6 43 -46 76 -25 21
-52 50 -60 65 -16 31 -19 90 -5 117 46 91 67 143 59 148 -13 8 -36 -14 -52
-50 -8 -17 -23 -52 -35 -78 -36 -82 -22 -147 48 -211 38 -35 47 -49 51 -86 5
-45 9 -49 67 -73 18 -7 38 -23 45 -36 16 -30 68 -52 124 -52 77 0 226 47 291
91 l42 29 31 -59 c36 -67 48 -75 168 -107 42 -11 63 -12 98 -3 41 11 50 9 85
-10 37 -21 40 -21 91 -6 124 36 190 111 204 227 5 45 2 62 -20 108 -14 29 -26
62 -26 72 0 41 78 6 126 -57 71 -92 69 -91 97 -76 34 18 100 119 99 151 -3
113 -2 138 6 160 5 14 13 64 17 112 8 100 0 123 -70 209 -77 93 -100 114 -145
130 l-44 16 -13 69 c-15 85 -24 105 -76 172 -47 62 -45 71 21 108 36 20 56 24
132 24 49 0 115 -7 147 -15 129 -35 220 -47 473 -65 69 -5 152 -14 185 -20 33
-6 87 -15 120 -20 33 -5 103 -16 155 -24 52 -9 119 -16 148 -16 51 0 101 -18
162 -59 14 -10 45 -24 70 -31 48 -15 130 -57 195 -99 50 -33 74 -44 155 -72
83 -28 120 -55 148 -112 27 -54 41 -60 202 -77 58 -6 125 -16 150 -20 72 -15
252 -17 257 -4 7 20 -56 34 -146 34 -86 0 -86 0 -99 29 -15 34 -55 51 -118 51
-23 0 -59 9 -81 20 -21 11 -50 24 -65 30 -16 5 -28 16 -28 24 0 7 -25 26 -55
40 -47 23 -57 25 -77 15 -35 -20 -62 -14 -187 43 -50 23 -173 133 -181 163 -4
14 -17 22 -45 26 -63 8 -141 58 -117 73 5 3 38 8 75 12 59 6 72 4 119 -19 29
-15 85 -52 123 -83 74 -59 137 -98 247 -153 43 -20 84 -51 112 -82 33 -37 51
-49 73 -49 15 0 46 -5 68 -10 62 -16 178 -51 195 -59 8 -5 47 -13 85 -20 39
-7 84 -17 101 -22 41 -12 44 -12 44 10 0 19 -14 24 -137 52 -66 14 -116 28
-198 54 -38 13 -94 26 -122 30 -44 6 -56 12 -70 37 -25 41 -107 100 -178 127
-113 42 -140 59 -240 146 -55 47 -122 99 -150 115 -27 16 -70 49 -94 74 l-44
45 -51 -26 c-28 -14 -62 -34 -75 -44 -20 -16 -40 -19 -130 -18 -263 2 -498 36
-701 99 -63 20 -110 29 -165 35 -33 3 -103 10 -156 15 -164 15 -165 16 -130
106 10 27 25 75 32 108 7 32 19 60 26 63 16 6 17 40 1 45 -45 15 -108 -26
-134 -88 -37 -89 -56 -125 -63 -122 -5 2 -25 24 -45 51 -30 39 -36 55 -36 97
0 27 -5 61 -12 75 -15 33 -5 41 24 21 27 -19 104 -21 196 -4 75 14 113 44 148
118 39 81 47 110 46 175 -1 58 1 65 26 81 37 24 44 32 71 87 14 27 31 47 40
46 9 0 30 -19 46 -42 45 -61 86 -81 164 -80 51 0 78 7 121 28 32 16 91 34 140
42 47 7 90 20 95 27 6 7 16 53 24 101 12 79 12 90 -5 126 -10 24 -14 43 -8 48
5 4 36 18 69 30 91 35 98 37 127 51 43 20 95 68 112 102 22 42 20 98 -4 128
-25 32 -25 45 0 85 18 29 19 37 8 62 -7 15 -30 45 -50 65 -21 20 -38 41 -38
47 0 5 -20 22 -43 36 -37 21 -56 25 -123 25 -82 0 -153 -16 -204 -47 -37 -21
-42 -16 -30 28 14 47 12 85 -5 154 -22 84 -46 133 -94 187 l-41 47 -54 -6
c-34 -4 -56 -2 -60 6 -10 15 -108 13 -122 -2z m106 -49 c16 -21 21 -22 52 -10
48 17 64 15 99 -10 48 -35 75 -110 85 -227 6 -73 5 -79 -28 -140 -37 -70 -74
-93 -102 -65 -8 8 -28 14 -45 14 -24 0 -31 4 -31 19 0 14 -8 21 -30 23 l-30 3
26 33 c18 23 34 32 54 32 41 0 60 10 60 30 0 23 -31 34 -70 25 -31 -7 -84 -52
-110 -93 -9 -13 -27 -25 -43 -26 -34 -4 -63 -29 -84 -73 -8 -18 -19 -33 -23
-33 -4 0 -13 19 -20 41 -10 28 -31 56 -67 87 -33 28 -53 54 -53 67 0 34 66
135 133 204 111 114 188 147 227 99z m-482 -254 c37 -46 59 -95 66 -149 17
-128 66 -211 129 -217 l32 -3 3 -67 3 -66 -58 -11 c-92 -18 -165 -33 -203 -42
-61 -15 -115 -11 -146 13 -103 77 -154 153 -154 227 0 58 36 153 87 234 25 39
52 83 60 96 14 22 20 23 86 18 63 -4 74 -8 95 -33z m1072 -125 c29 -16 40 -29
40 -46 0 -16 8 -27 28 -34 50 -20 57 -26 60 -52 2 -18 -7 -37 -33 -66 -34 -38
-39 -61 -13 -61 22 0 58 -44 58 -70 0 -21 -17 -44 -73 -96 -74 -71 -109 -88
-203 -101 -39 -5 -49 -2 -72 19 -15 14 -43 31 -62 38 -40 15 -70 44 -70 70 0
9 19 33 43 51 73 59 94 86 100 131 9 70 -15 94 -61 62 -22 -15 -23 -17 -6 -35
25 -27 8 -74 -26 -75 -48 -2 -50 -4 -50 -37 0 -25 -6 -37 -22 -45 -29 -15 -78
-33 -78 -28 0 1 18 22 40 45 43 45 55 96 25 107 -21 8 -47 -15 -40 -36 6 -20
-29 -69 -41 -57 -4 4 0 21 10 37 9 17 14 34 11 40 -7 12 22 70 36 70 5 0 19
19 29 43 10 23 29 52 42 64 19 18 112 66 168 87 30 11 120 -3 160 -25z m-628
-51 c-7 -7 -12 -8 -12 -2 0 14 12 26 19 19 2 -3 -1 -11 -7 -17z m-275 -58 c18
-36 33 -71 33 -77 0 -43 -66 26 -74 76 -3 22 -9 47 -13 56 -4 13 -2 16 8 13 8
-2 29 -33 46 -68z m-543 12 c16 -15 17 -26 12 -84 -6 -56 -4 -73 13 -106 21
-41 113 -140 157 -169 17 -11 24 -25 24 -48 0 -36 -32 -120 -67 -177 -32 -53
-91 -81 -65 -31 13 25 24 136 16 157 -5 12 -16 16 -37 14 -28 -3 -32 1 -41 30
-10 34 -35 43 -55 18 -9 -11 -7 -23 9 -54 29 -56 24 -96 -12 -100 -27 -3 -28
-2 -28 45 -1 54 -19 87 -47 81 -23 -4 -30 -48 -9 -60 10 -6 16 -22 16 -44 0
-70 -43 -102 -55 -41 -22 107 -81 236 -133 290 l-37 38 34 62 c36 67 78 117
97 117 20 0 92 42 116 67 25 27 58 25 92 -5z m726 -22 c0 -25 -38 -80 -55 -80
-12 0 -3 63 11 85 23 34 44 32 44 -5z m216 -1 c3 -6 -5 -22 -18 -36 -23 -22
-28 -24 -49 -11 -13 7 -26 14 -28 15 -6 3 23 29 39 36 25 9 48 8 56 -4z m24
-74 c0 -16 -27 -32 -36 -22 -7 6 17 36 29 37 4 0 7 -7 7 -15z m-144 -52 c-7
-17 -8 -17 -17 0 -12 21 -2 44 13 29 6 -6 8 -19 4 -29z m-1439 -53 c2 0 3 -8
3 -19 0 -19 20 -27 108 -38 30 -3 48 -13 63 -31 15 -19 28 -26 50 -24 41 3 86
-25 99 -61 13 -39 14 -36 -15 -47 -21 -8 -25 -16 -25 -50 0 -37 -2 -41 -21
-35 -28 9 -59 -21 -59 -56 0 -21 -7 -31 -27 -41 -38 -18 -44 -75 -12 -121 13
-17 28 -35 33 -39 16 -10 -10 -16 -89 -20 -53 -3 -85 -11 -130 -33 -81 -40
-135 -40 -196 2 -92 64 -151 161 -142 234 4 30 11 38 46 55 23 10 42 26 42 34
0 7 -17 23 -37 34 -21 11 -38 23 -38 27 0 3 16 19 35 34 26 19 34 32 30 45 -9
28 31 64 129 119 78 42 94 47 120 40 17 -5 32 -9 33 -9z m1216 -156 c30 -10
47 -22 47 -32 1 -21 23 -52 38 -52 16 0 30 -100 19 -133 -5 -15 -7 -42 -3 -59
12 -60 -83 -200 -145 -213 -73 -16 -196 35 -225 93 -6 13 -22 35 -36 50 -46
52 -68 122 -55 175 12 48 70 107 106 107 14 0 40 12 56 26 62 55 118 65 198
38z m482 -14 c120 -32 205 -114 205 -201 0 -22 -7 -65 -15 -94 -16 -55 -32
-65 -99 -65 -12 0 -58 -18 -101 -40 -86 -44 -135 -50 -189 -25 -74 36 -136
108 -136 159 0 23 22 92 33 102 4 4 7 13 7 21 0 7 17 30 38 51 89 91 161 116
257 92z m-1335 -129 c0 -11 -4 -22 -9 -25 -11 -7 -23 22 -15 35 9 16 24 10 24
-10z m305 -11 c8 -24 -4 -90 -16 -90 -5 0 -9 25 -9 55 0 55 13 73 25 35z
m-362 -67 c5 -26 2 -42 -9 -54 -10 -11 -17 -38 -17 -68 -1 -28 -3 -51 -4 -51
-1 0 -9 14 -17 32 -24 47 -21 136 5 165 27 28 35 24 42 -24z m260 -27 c7 -17
-2 -56 -13 -56 -12 0 -19 26 -13 49 6 24 18 27 26 7z m258 -39 c4 -14 4 -28 1
-31 -8 -9 -35 -7 -51 3 -11 7 -10 13 4 35 21 32 36 29 46 -7z m41 -92 c18 -7
50 -34 71 -59 51 -62 76 -77 150 -90 l62 -11 6 -40 c4 -23 1 -68 -6 -104 -11
-53 -20 -71 -52 -101 -55 -53 -73 -60 -151 -60 -68 0 -71 1 -111 40 -22 22
-49 40 -60 40 -33 0 -131 131 -131 176 0 8 -9 34 -20 57 l-21 42 28 22 c15 13
31 23 36 23 4 0 7 11 7 23 0 24 21 49 50 60 22 9 103 -1 142 -18z m-607 -124
c22 -7 52 -15 68 -18 15 -3 30 -10 33 -15 11 -17 -39 -99 -102 -167 -91 -99
-141 -157 -161 -191 -23 -40 -41 -44 -114 -26 -33 9 -81 16 -105 16 -48 0 -94
19 -131 53 -24 22 -33 90 -13 102 6 3 10 31 10 61 0 78 21 113 84 139 21 9 47
12 66 9 22 -5 36 -2 51 12 40 36 71 43 174 40 55 -1 118 -8 140 -15z m273
-103 c6 -13 14 -34 17 -48 10 -37 34 -70 50 -70 8 0 36 -21 62 -46 27 -26 55
-52 63 -59 8 -8 24 -41 34 -74 16 -50 17 -67 8 -98 -17 -56 -92 -137 -139
-150 -21 -6 -64 -19 -96 -28 -52 -15 -61 -15 -75 -2 -16 14 -36 18 -152 34
-24 3 -60 16 -80 29 -19 13 -40 24 -47 24 -7 0 -24 18 -39 39 -30 45 -27 75
11 151 27 54 48 73 183 174 67 51 109 89 119 112 20 42 63 48 81 12z m492
-368 c0 -14 -26 -111 -39 -143 -6 -16 -22 -43 -36 -61 -14 -18 -25 -40 -25
-49 0 -25 -56 -23 -72 3 -7 11 -17 20 -22 20 -26 0 -46 35 -46 80 0 26 3 50 7
53 8 9 53 -32 53 -47 0 -21 47 -69 61 -64 8 3 21 34 28 69 18 82 30 110 55
131 24 20 36 23 36 8z m-913 -216 c12 -7 33 -14 45 -14 13 -1 39 -10 58 -20
48 -26 72 -37 93 -44 22 -7 21 -14 -3 -54 -15 -25 -25 -32 -38 -27 -9 3 -102
11 -207 17 -104 5 -195 11 -202 13 -9 3 -9 11 0 34 8 22 8 39 -1 67 -6 20 -8
42 -5 47 9 15 233 -1 260 -19z m593 -41 c4 -42 12 -59 39 -87 54 -56 19 -74
-67 -35 -49 23 -71 22 -210 -9 -42 -9 -70 2 -35 15 32 11 53 35 63 74 11 40
27 51 120 83 73 25 84 20 90 -41z m-380 15 c0 -13 -47 -9 -59 5 -6 8 -8 16 -5
19 7 8 64 -14 64 -24z m820 -38 c85 -5 169 -13 185 -18 17 -5 48 -15 70 -21
22 -6 87 -24 145 -40 153 -42 353 -68 596 -76 149 -5 162 -4 183 14 12 11 29
17 36 15 13 -5 45 -47 45 -59 0 -3 -29 -5 -64 -5 -96 0 -100 -21 -8 -43 26 -7
46 -16 44 -22 -4 -15 -232 -10 -342 8 -101 16 -208 30 -385 47 -139 14 -230
27 -325 47 -41 8 -84 17 -95 19 -11 1 -55 8 -97 15 -65 10 -78 15 -78 30 0 12
-7 19 -18 19 -10 0 -22 4 -27 9 -11 11 -85 -9 -85 -21 0 -5 -7 -8 -15 -8 -8 0
-15 3 -15 6 0 11 75 94 85 94 5 0 80 -5 165 -10z m-700 -25 c0 -14 -48 -45
-70 -45 -23 0 -8 31 23 44 42 19 47 19 47 1z m420 -130 c-18 -17 -32 -23 -47
-19 -33 9 -28 39 10 57 28 14 34 14 47 1 13 -12 11 -17 -10 -39z m-153 -6 l48
-23 -39 -4 c-39 -3 -126 32 -126 52 0 14 64 0 117 -25z m-92 -39 c27 -21 49
-30 75 -30 22 0 43 -7 52 -17 32 -36 86 -89 131 -130 38 -34 47 -49 47 -76 0
-31 -4 -35 -39 -45 -21 -7 -66 -12 -100 -12 -72 0 -92 -9 -144 -61 -61 -63
-91 -48 -122 60 -27 93 -46 124 -103 160 -42 28 -52 39 -52 62 0 73 57 117
156 118 54 1 66 -3 99 -29z m224 -51 c31 -31 42 -56 19 -43 -23 13 -50 38 -59
56 -15 28 6 22 40 -13z m-609 -69 c0 -5 -9 -10 -19 -10 -11 0 -23 5 -26 10 -4
6 5 10 19 10 14 0 26 -4 26 -10z m714 -241 c34 -6 72 -14 86 -17 38 -11 190
-204 190 -241 0 -9 -10 -46 -21 -83 -18 -57 -20 -73 -10 -95 10 -22 9 -29 -11
-50 -21 -23 -22 -24 -4 -54 12 -20 15 -39 11 -60 -7 -32 -61 -89 -85 -89 -8 0
-28 20 -44 45 -23 37 -42 52 -102 81 -65 31 -79 42 -115 97 -23 34 -70 89
-104 122 -67 63 -93 121 -80 172 3 14 1 31 -5 38 -16 19 -4 37 53 78 98 71
124 77 241 56z m-712 -335 c-21 -52 -42 -69 -42 -34 0 38 41 98 58 85 1 -1 -6
-24 -16 -51z m338 16 c0 -33 -11 -38 -30 -15 -15 18 -6 45 15 45 10 0 15 -10
15 -30z m70 -40 c0 -31 -16 -41 -26 -15 -8 19 2 45 16 45 5 0 10 -13 10 -30z
m-140 -25 c7 -17 17 -25 34 -25 18 0 26 -6 28 -22 3 -22 7 -23 50 -11 13 4 15
0 11 -19 -3 -12 -13 -31 -21 -40 -13 -16 -13 -20 2 -43 14 -21 20 -24 36 -15
16 9 20 21 20 62 0 68 19 128 39 128 20 0 84 -74 108 -124 9 -20 20 -36 25
-36 4 0 8 -17 8 -38 0 -23 12 -64 29 -98 16 -32 33 -80 39 -106 18 -88 -34
-148 -172 -199 -49 -18 -50 -18 -87 3 -27 15 -45 19 -66 14 -58 -15 -157 0
-203 31 -36 23 -59 70 -61 119 0 11 28 76 63 146 57 115 65 127 91 127 34 1
35 24 7 99 -11 29 -18 57 -15 63 11 16 25 10 35 -16z m-126 -124 c3 -4 2 -28
-2 -52 -5 -31 -13 -45 -26 -47 -16 -4 -18 1 -12 35 4 21 9 46 12 56 6 18 19
23 28 8z"/>
<path d="M8722 3917 c-12 -13 -22 -27 -22 -33 0 -5 -14 -25 -31 -44 -68 -78
-66 -146 7 -225 95 -103 104 -116 104 -147 0 -18 11 -69 24 -113 13 -44 20
-84 16 -89 -5 -5 -46 10 -92 33 -47 22 -92 41 -100 41 -24 0 -28 21 -28 158 0
178 -23 243 -109 306 -79 59 -108 42 -51 -29 17 -21 30 -47 30 -57 0 -17 -24
-133 -36 -175 -2 -10 -13 -9 -45 2 -58 21 -85 19 -173 -11 -42 -14 -85 -22
-96 -19 -10 3 -29 28 -41 56 -20 43 -27 50 -48 47 -26 -3 -26 -4 -29 -103 l-3
-100 44 -43 c30 -29 58 -47 86 -53 54 -12 179 3 257 31 32 11 64 20 71 20 7 0
26 -19 43 -42 50 -71 68 -86 122 -99 97 -23 295 -142 668 -401 41 -29 116 -91
165 -139 92 -88 296 -232 392 -276 29 -13 59 -32 65 -41 7 -10 25 -25 41 -35
15 -10 27 -22 27 -27 0 -5 -21 -24 -47 -41 -27 -18 -50 -35 -53 -39 -8 -10
-62 -46 -103 -69 -30 -17 -55 -21 -120 -21 -96 0 -186 -17 -277 -53 -36 -14
-91 -33 -123 -42 -41 -12 -74 -31 -110 -62 -29 -25 -54 -47 -56 -49 -2 -2 -1
-10 2 -19 6 -13 15 -12 74 11 145 55 236 74 282 59 28 -8 27 -16 -8 -56 -17
-18 -40 -53 -51 -77 -31 -62 -15 -74 47 -34 26 17 71 38 98 48 92 30 136 57
206 120 71 66 132 102 209 123 25 7 59 17 76 22 17 5 37 9 46 9 25 0 120 42
167 73 l44 30 81 -12 c239 -35 246 -39 180 -102 -49 -46 -63 -77 -61 -130 2
-40 -3 -51 -39 -92 -53 -60 -58 -88 -30 -152 22 -46 22 -53 9 -91 -9 -26 -20
-41 -30 -40 -8 0 -20 -7 -26 -16 -11 -17 -10 -24 18 -90 5 -13 -2 -19 -35 -29
-42 -13 -43 -12 -70 18 -26 28 -60 119 -60 157 0 35 -63 168 -101 210 -46 53
-77 66 -159 66 -60 0 -83 -5 -143 -34 -90 -42 -150 -86 -179 -131 -27 -41 -58
-45 -159 -19 -57 15 -69 15 -153 -1 -50 -9 -108 -20 -128 -26 -36 -9 -88 -58
-88 -83 0 -13 54 -66 116 -114 43 -33 119 -120 112 -127 -2 -3 -38 -9 -79 -15
-41 -5 -83 -14 -94 -19 -109 -47 -150 -76 -180 -127 -22 -38 -24 -48 -15 -86
14 -64 13 -72 -20 -91 -35 -21 -38 -45 -16 -147 16 -80 37 -121 73 -150 62
-49 135 -61 240 -40 26 5 82 14 123 21 41 6 104 20 139 31 35 10 65 18 66 16
2 -2 -5 -30 -15 -63 -10 -33 -23 -82 -29 -108 -6 -26 -29 -85 -51 -132 -40
-84 -58 -171 -47 -217 4 -13 23 -36 43 -52 39 -31 48 -30 116 16 42 29 66 24
70 -15 5 -53 38 -38 155 71 111 103 181 188 213 258 27 59 40 64 40 15 0 -22
4 -43 10 -46 5 -3 39 8 75 26 54 26 75 44 125 108 115 145 170 297 155 429 -4
37 -10 102 -13 144 -4 42 -10 80 -14 84 -20 19 60 83 84 68 12 -8 10 -48 -3
-61 -6 -6 -8 -16 -4 -23 10 -17 62 -3 118 31 27 16 50 29 53 29 2 0 4 -24 4
-52 1 -61 32 -131 71 -161 14 -10 56 -26 93 -36 39 -10 85 -31 112 -52 25 -19
60 -44 77 -56 31 -24 100 -32 112 -13 12 20 24 -1 19 -33 -7 -42 -24 -127 -31
-150 -2 -9 -28 -35 -57 -56 -57 -42 -98 -112 -136 -230 -39 -123 -23 -208 63
-351 22 -36 49 -80 59 -97 18 -29 25 -33 63 -33 24 0 55 4 68 9 16 6 37 6 60
-1 31 -9 39 -8 69 13 41 29 51 41 83 106 69 139 72 244 13 443 -6 19 -13 61
-15 92 -4 54 -8 61 -50 98 l-45 39 7 98 c9 145 34 253 59 253 11 0 66 -63 66
-75 0 -8 27 -35 34 -35 14 0 4 35 -18 60 -13 16 -39 57 -58 92 -30 54 -36 75
-41 150 -4 64 -3 89 7 97 7 6 15 9 18 6 3 -3 13 4 23 15 16 17 16 27 6 97 -11
76 -11 77 13 100 14 13 30 23 35 23 5 0 17 10 25 22 l16 22 47 -44 c25 -25 56
-54 68 -66 12 -11 58 -33 101 -48 44 -15 83 -32 89 -37 5 -5 20 -9 35 -9 l25
1 -32 28 c-18 15 -55 33 -83 41 -27 7 -50 17 -50 20 0 9 103 30 146 30 18 0
36 5 39 10 3 6 32 10 64 10 69 0 122 20 144 54 23 34 5 41 -30 12 -16 -14 -53
-29 -88 -35 -33 -7 -67 -15 -75 -18 -8 -3 -57 -7 -108 -9 -85 -4 -95 -2 -132
21 -22 14 -40 31 -40 39 0 8 -11 17 -24 20 -13 3 -33 22 -45 41 -11 19 -25 35
-30 35 -5 0 -12 8 -16 19 -3 10 -17 31 -31 46 -25 27 -25 29 -10 69 9 24 16
72 16 114 0 129 47 199 175 261 82 39 133 41 163 6 15 -17 32 -25 54 -25 54
-1 158 -27 177 -44 21 -19 41 -21 41 -3 0 18 -39 53 -73 66 -16 6 -50 11 -76
11 -26 0 -63 8 -85 19 -68 35 -91 40 -138 29 -23 -6 -55 -19 -70 -30 -14 -10
-30 -18 -35 -18 -4 0 -33 -23 -63 -50 -30 -28 -58 -50 -62 -50 -5 0 -8 31 -8
68 0 65 -1 69 -38 105 -33 33 -44 37 -87 37 -82 0 -82 2 -36 137 38 111 40
124 31 174 -5 30 -15 88 -21 129 l-12 75 -89 88 c-69 69 -88 94 -88 116 0 16
-7 34 -15 41 -13 10 -19 9 -36 -6 -57 -51 -47 -118 26 -189 l53 -50 -9 -75
c-15 -131 -26 -154 -50 -107 -57 109 -160 193 -285 231 -49 15 -107 37 -129
48 -22 11 -53 28 -69 36 -17 8 -46 19 -65 23 -20 4 -53 12 -73 17 -26 7 -42 6
-53 -2 -14 -10 -11 -16 23 -43 42 -34 77 -98 133 -243 42 -111 80 -166 119
-175 16 -4 46 -18 67 -32 21 -14 65 -39 98 -55 55 -27 115 -88 115 -118 0 -5
-35 -37 -77 -71 l-77 -61 -56 7 c-30 3 -109 10 -175 15 -384 27 -478 39 -575
73 -65 22 -115 47 -155 78 -33 25 -114 82 -180 126 -66 44 -150 108 -187 143
-37 34 -87 75 -110 91 -24 16 -74 51 -112 77 -38 25 -87 70 -110 98 -22 28
-58 62 -78 75 -20 13 -39 34 -43 47 -3 13 -3 81 1 152 6 121 6 130 -15 158
-15 21 -21 45 -21 81 0 27 -5 63 -11 78 -25 59 -89 189 -101 203 -53 63 -127
79 -166 37z m162 -119 c23 -50 26 -66 18 -92 -10 -33 -11 -31 -32 44 -6 25
-16 53 -21 62 -11 21 -12 48 -1 48 4 0 20 -28 36 -62z m-102 5 c24 -26 58 -93
58 -114 0 -21 -37 -6 -57 24 -13 17 -32 43 -43 57 -21 27 -19 60 4 60 7 0 24
-12 38 -27z m-98 -30 c12 -43 17 -103 9 -103 -21 0 -33 27 -33 72 0 47 14 65
24 31z m216 -137 c0 -16 -14 -36 -26 -36 -8 0 -14 2 -14 4 0 2 -3 11 -6 20 -5
12 0 16 20 16 14 0 26 -2 26 -4z m-126 -51 c6 -17 4 -18 -18 -9 -20 8 -21 24
-2 24 8 0 16 -7 20 -15z m205 -107 c13 -23 12 -31 -12 -88 -15 -35 -30 -89
-34 -121 -5 -46 -9 -57 -19 -49 -29 25 -73 157 -74 224 0 23 3 27 18 21 43
-18 50 -16 68 14 21 36 33 35 53 -1z m-451 -76 c15 -19 16 -42 2 -42 -5 0 -10
6 -10 13 0 6 -17 23 -38 37 -38 26 -61 49 -62 63 0 10 91 -50 108 -71z m-294
-4 c18 -24 22 -35 13 -40 -13 -9 -62 42 -70 73 -4 15 -2 17 13 9 10 -5 30 -24
44 -42z m-86 -9 c15 -24 10 -34 -13 -26 -15 6 -22 47 -7 47 4 0 13 -9 20 -21z
m412 -69 c0 -5 -4 -10 -10 -10 -5 0 -10 5 -10 10 0 6 5 10 10 10 6 0 10 -4 10
-10z m211 -82 c80 -38 120 -70 101 -82 -13 -8 -94 37 -110 62 -10 15 -24 22
-46 22 -33 1 -66 20 -66 38 0 15 17 9 121 -40z m216 -96 c6 -11 31 -25 56 -31
30 -9 59 -28 88 -58 24 -25 62 -56 84 -70 38 -25 295 -221 305 -234 13 -16
243 -191 305 -232 39 -25 90 -52 115 -60 25 -8 65 -20 88 -27 28 -9 47 -22 52
-36 5 -12 21 -25 37 -29 27 -6 27 -7 8 -21 -40 -29 -152 3 -201 58 -16 18 -40
38 -54 45 -14 6 -47 21 -75 33 -27 12 -71 42 -96 65 -26 24 -67 53 -93 64 -25
12 -52 31 -59 42 -15 25 -291 251 -377 309 -36 24 -86 66 -112 92 -26 26 -52
48 -58 48 -17 0 -40 26 -40 44 0 21 13 20 27 -2z m2115 -9 c2 -5 28 -28 58
-53 72 -59 75 -62 88 -87 15 -27 16 -63 2 -63 -5 0 -10 6 -10 13 0 7 -13 26
-30 42 -16 16 -30 34 -30 41 0 7 -15 24 -32 38 -47 37 -68 58 -68 68 0 10 17
11 22 1z m-528 -34 c15 -11 35 -37 45 -57 31 -61 62 -180 59 -225 l-3 -42 -16
30 c-9 17 -31 73 -49 125 -18 52 -45 114 -61 137 -16 23 -29 44 -29 47 0 13
29 5 54 -15z m135 -131 c40 -89 48 -115 55 -171 7 -53 6 -57 -13 -57 -24 0
-27 11 -48 183 -3 26 -10 50 -14 53 -9 5 -13 34 -4 34 2 0 13 -19 24 -42z m70
-3 c12 -25 21 -54 21 -64 0 -11 5 -23 10 -26 6 -3 10 -17 10 -30 0 -13 5 -27
10 -30 6 -3 10 -27 10 -53 0 -59 -13 -44 -29 33 -7 33 -17 68 -22 77 -5 10 -9
26 -9 36 0 10 -3 22 -7 26 -12 11 -31 76 -23 76 4 0 17 -20 29 -45z m65 22
c12 -11 19 -29 47 -117 14 -45 22 -206 10 -194 -7 6 -16 44 -21 85 -5 41 -14
92 -20 114 -6 22 -14 50 -17 63 -3 12 -9 25 -14 28 -10 6 -12 34 -3 34 3 0 11
-6 18 -13z m346 -148 c0 -6 -5 -19 -10 -29 -7 -12 -7 -28 0 -44 5 -15 6 -26 1
-26 -5 0 -17 -3 -27 -7 -18 -7 -18 -11 2 87 6 28 34 44 34 19z m-170 -35 c0
-13 -4 -24 -10 -24 -5 0 -10 14 -10 31 0 17 4 28 10 24 6 -3 10 -17 10 -31z
m5 -165 l-13 -54 -1 85 c0 80 1 83 13 54 12 -26 12 -40 1 -85z m135 55 c0 -14
-4 -23 -10 -19 -5 3 -10 15 -10 26 0 10 5 19 10 19 6 0 10 -12 10 -26z m-73
-76 c-2 -13 -4 -5 -4 17 -1 22 1 32 4 23 2 -10 2 -28 0 -40z m17 -168 c16 -16
124 -12 175 7 56 19 92 13 128 -23 25 -25 26 -29 20 -121 -6 -91 -34 -209 -63
-265 -8 -15 -27 -39 -42 -53 -24 -23 -33 -25 -72 -20 -24 4 -64 16 -88 27 -38
18 -67 41 -182 146 -14 12 -58 39 -98 59 -41 21 -76 41 -79 46 -3 5 0 26 7 48
10 29 19 39 39 41 18 2 27 10 29 25 4 26 74 90 106 97 31 6 109 -3 120 -14z
m-406 -90 c70 0 87 -9 78 -43 -9 -36 -33 -57 -65 -57 -15 0 -43 -8 -61 -17
-30 -14 -45 -15 -124 -5 -147 19 -166 23 -179 41 -6 10 -20 20 -31 24 -14 6
-16 10 -7 21 15 18 90 30 166 28 33 -1 78 2 100 7 22 5 46 7 53 5 8 -2 39 -4
70 -4z m-604 -103 c31 -23 15 -47 -43 -68 -30 -10 -65 -28 -77 -40 -13 -12
-43 -26 -66 -30 -24 -4 -62 -13 -85 -20 -34 -10 -46 -10 -55 -1 -20 20 14 46
58 44 44 -2 91 29 123 82 21 34 37 41 102 45 14 0 33 -5 43 -12z m728 -93 c70
-74 151 -134 182 -134 17 0 33 -11 48 -32 61 -84 61 -118 2 -118 -57 0 -154
-39 -154 -61 0 -15 7 -19 35 -19 19 0 37 6 42 15 5 8 20 16 33 17 41 5 27 -48
-26 -98 -44 -42 -54 -70 -32 -92 13 -13 -10 -36 -81 -79 -69 -42 -146 -63
-230 -63 -65 0 -80 4 -115 28 -23 15 -46 34 -53 42 -16 20 -16 85 -1 110 10
16 8 29 -15 76 -33 66 -30 81 24 136 36 37 39 45 39 95 0 51 4 61 52 126 61
82 97 107 155 107 38 0 47 -5 95 -56z m-1537 -154 c-3 -5 -10 -10 -16 -10 -5
0 -9 5 -9 10 0 6 7 10 16 10 8 0 12 -4 9 -10z m410 -20 c-26 -43 -211 -128
-232 -107 -11 12 17 52 48 71 56 33 199 61 184 36z m302 -107 c11 -10 26 -38
33 -63 18 -60 58 -147 70 -155 21 -13 9 -26 -22 -23 -31 3 -33 5 -36 48 -3 43
-32 90 -55 90 -5 0 -38 14 -74 31 -63 30 -65 30 -104 15 -46 -19 -59 -20 -59
-6 0 9 37 28 130 68 39 17 95 14 117 -5z m124 -70 c28 -35 39 -63 39 -99 0
-31 -2 -35 -15 -24 -15 13 -65 111 -65 129 0 17 25 13 41 -6z m-221 -50 c91
-40 101 -46 98 -62 -4 -22 -58 -28 -58 -6 0 9 -13 21 -30 26 -16 6 -30 16 -30
21 0 6 -11 8 -25 6 -27 -6 -51 14 -40 32 7 12 30 7 85 -17z m-410 -89 c34 -25
65 -56 70 -68 4 -11 24 -37 44 -55 20 -19 36 -40 36 -47 0 -14 87 -104 101
-104 18 0 9 -18 -12 -23 -16 -4 -20 -11 -16 -27 7 -27 -13 -35 -55 -21 -18 6
-71 15 -118 21 -89 10 -120 29 -120 71 0 13 -7 19 -24 19 -36 0 -216 176 -216
211 0 15 6 31 13 36 17 15 142 36 172 30 14 -2 28 0 31 5 8 13 24 6 94 -48z
m117 13 c12 -19 78 -67 93 -67 22 0 39 -32 28 -54 -5 -10 -8 -31 -6 -47 7 -43
-9 -35 -32 16 -15 33 -35 55 -73 79 -45 29 -77 63 -77 81 0 11 60 4 67 -8z
m1573 4 c0 -4 -4 -21 -9 -37 -34 -112 -34 -114 -23 -139 7 -15 20 -25 32 -25
14 0 20 -7 20 -24 0 -32 25 -53 44 -36 11 8 15 32 14 80 0 37 3 73 6 79 17 27
24 -6 19 -93 -5 -78 -2 -104 16 -159 23 -72 26 -98 12 -113 -5 -5 -14 -26 -21
-46 -10 -33 -71 -98 -92 -98 -4 0 -30 -13 -58 -30 -75 -45 -98 -41 -170 30
-24 24 -57 44 -82 50 -103 27 -121 35 -148 66 -70 80 -64 199 11 257 31 23 59
37 169 85 19 8 56 30 82 49 41 30 49 32 67 21 29 -18 51 -2 75 50 18 38 36 55
36 33z m60 -48 c0 -43 -20 -113 -32 -113 -22 0 -31 50 -18 92 24 77 50 87 50
21z m-1176 -105 c46 -46 73 -84 100 -143 38 -81 40 -98 17 -157 -15 -40 -34
-35 -60 15 -24 46 -54 69 -138 104 -29 12 -77 43 -108 69 -80 69 -75 106 21
154 70 35 97 28 168 -42z m84 48 c29 -16 85 -72 149 -151 73 -90 83 -113 83
-191 0 -39 5 -85 11 -102 6 -17 9 -42 7 -56 l-3 -25 -40 36 c-22 20 -56 47
-75 62 -50 37 -51 39 -44 114 5 60 4 71 -14 90 -11 12 -26 42 -32 67 -12 44
-54 114 -84 139 -36 30 -6 42 42 17z m352 -134 c0 -4 -20 -15 -45 -24 -48 -18
-55 -15 -28 14 16 18 73 26 73 10z m134 -39 c-22 -35 -44 -52 -66 -53 -19 0
-23 17 -10 36 13 19 56 44 75 44 19 0 19 -1 1 -27z m-1267 -65 c4 -7 15 -33
24 -57 15 -44 17 -46 69 -56 l54 -10 2 -41 c2 -36 -1 -41 -30 -54 -48 -20 -86
-50 -86 -66 0 -8 11 -19 25 -26 30 -14 55 3 55 37 0 25 56 57 123 69 46 9 51
-12 8 -37 -16 -10 -49 -35 -72 -56 -51 -46 -49 -74 3 -69 28 3 33 7 33 30 0
34 11 44 30 28 22 -18 19 -39 -10 -66 -15 -14 -22 -29 -19 -39 11 -28 46 -12
70 30 22 40 54 59 54 32 0 -8 -7 -21 -17 -28 -9 -8 -33 -38 -55 -66 -45 -62
-72 -77 -158 -93 -65 -11 -170 -32 -265 -51 -94 -20 -166 3 -203 64 -34 58
-53 174 -34 203 4 6 22 19 39 28 30 15 32 18 21 44 -7 15 -15 31 -20 37 -13
15 -9 63 7 95 20 39 58 64 140 90 39 12 79 26 90 31 32 12 113 10 122 -3z
m869 -239 c60 -41 104 -97 104 -133 0 -71 -61 -201 -138 -292 -76 -90 -86 -93
-75 -18 10 72 9 290 -2 360 -5 34 -3 64 5 89 11 32 15 36 38 30 14 -3 44 -19
68 -36z m-177 -137 c27 -46 41 -80 41 -103 0 -115 -147 -401 -256 -500 -32
-28 -131 -99 -139 -99 -3 0 -5 9 -5 20 0 31 -26 35 -67 10 -64 -38 -103 -60
-108 -60 -3 0 -5 7 -5 15 0 9 -11 20 -25 25 -28 11 -30 22 -15 101 15 79 67
175 175 324 23 31 65 118 65 134 0 5 10 11 23 14 12 2 30 8 40 12 15 6 18 4
16 -11 -2 -10 9 -32 24 -49 23 -23 32 -27 45 -19 9 6 20 22 24 35 28 99 34
112 50 117 10 2 21 16 24 31 9 45 23 71 38 71 7 0 32 -31 55 -68z m1161 2 c0
-59 -19 -124 -37 -124 -7 0 -13 11 -13 27 0 35 32 143 42 143 4 0 8 -21 8 -46z
m-1455 -43 c-3 -6 -11 -11 -17 -11 -6 0 -6 6 2 15 14 17 26 13 15 -4z m111 -8
c-10 -10 -19 5 -10 18 6 11 8 11 12 0 2 -7 1 -15 -2 -18z m504 -15 c0 -28 -22
-88 -32 -88 -12 0 -9 53 5 83 15 32 27 35 27 5z m-680 -57 c0 -22 -52 -69 -58
-52 -4 12 38 70 51 70 4 1 7 -8 7 -18z m1610 -86 c44 -45 44 -84 3 -192 -27
-70 -42 -117 -60 -193 -3 -13 -21 -39 -40 -56 -18 -17 -33 -41 -33 -52 0 -13
-11 -26 -27 -34 -16 -7 -37 -31 -48 -52 -26 -49 -37 -53 -75 -26 -32 23 -41
49 -60 166 -14 87 -1 168 41 262 48 108 110 170 199 198 55 18 64 16 100 -21z
m78 -208 c27 -75 4 -306 -39 -390 -19 -37 -51 -67 -72 -67 -22 0 -56 37 -57
62 0 9 6 29 14 45 7 15 24 51 36 78 13 28 27 57 31 65 27 47 36 83 41 146 7
100 24 122 46 61z m-193 -436 c3 -7 4 -14 3 -15 -38 -19 -82 -36 -93 -36 -24
0 -17 29 15 61 25 26 32 28 49 17 12 -7 23 -19 26 -27z"/>
<path d="M11845 1519 c4 -13 10 -44 14 -69 4 -25 13 -55 19 -67 25 -45 -16
-134 -95 -207 -30 -28 -62 -55 -69 -59 -8 -4 -14 -13 -14 -20 0 -12 -30 -28
-77 -42 -12 -3 -48 1 -79 9 -32 8 -60 13 -63 10 -15 -15 71 -54 120 -54 32 0
89 27 96 46 3 8 10 14 17 15 6 0 38 22 71 48 47 37 69 65 102 127 47 88 49 99
29 146 -8 18 -20 55 -28 83 -9 34 -20 51 -32 53 -16 3 -18 0 -11 -19z"/>
</g>
</svg>
