<?xml version="1.0" standalone="no"?>
<!DOCTYPE svg PUBLIC "-//W3C//DTD SVG 20010904//EN"
 "http://www.w3.org/TR/2001/REC-SVG-20010904/DTD/svg10.dtd">
<svg version="1.0" xmlns="http://www.w3.org/2000/svg"
 width="800.000000pt" height="209.000000pt" viewBox="0 0 800.000000 209.000000"
 preserveAspectRatio="xMidYMid meet">

<g transform="translate(0.000000,209.000000) scale(0.100000,-0.100000)"
fill="#000000" stroke="none">
<path d="M6813 2040 c-28 -22 -65 -61 -81 -85 l-30 -46 -20 26 c-16 20 -29 25
-64 25 -50 0 -60 -8 -102 -82 -23 -40 -31 -46 -46 -38 -27 15 -138 -63 -169
-118 -17 -31 -26 -41 -34 -33 -6 6 -20 11 -31 11 -12 0 -30 7 -40 15 -33 25
-89 19 -131 -15 -21 -16 -41 -30 -44 -30 -3 0 -19 -16 -35 -36 -24 -31 -27
-40 -17 -56 6 -10 9 -29 5 -43 -10 -39 14 -93 57 -127 l38 -31 -23 -28 c-24
-28 -42 -113 -30 -143 10 -26 61 -48 125 -53 48 -5 60 -9 65 -27 3 -11 16 -31
27 -43 l20 -23 -64 0 c-86 0 -107 7 -125 42 -32 61 -27 10 7 -80 5 -13 5 -31
0 -40 -4 -9 -11 -34 -14 -55 -5 -33 -4 -37 8 -27 8 7 15 21 15 31 0 17 8 19
71 19 75 0 212 -19 207 -29 -2 -3 -10 -19 -18 -34 -11 -23 -19 -28 -39 -23
-15 3 -48 9 -74 12 -41 6 -50 4 -62 -13 -8 -12 -25 -23 -38 -26 -37 -10 -78
-60 -84 -104 -5 -36 -2 -42 32 -70 l37 -31 -31 -18 c-17 -10 -31 -22 -31 -26
0 -12 14 -10 36 7 24 18 64 18 88 0 11 -8 30 -15 42 -15 l23 0 -19 -43 c-23
-51 -25 -67 -6 -67 10 0 14 10 14 30 -1 17 3 34 7 38 4 4 5 -3 2 -16 -6 -24
19 -44 32 -26 3 5 13 9 21 9 10 0 14 8 13 23 -3 28 14 65 27 57 5 -3 4 -19 0
-38 -5 -17 -9 -41 -8 -52 1 -11 -2 -39 -6 -62 -5 -29 -4 -43 3 -43 19 0 12
-18 -19 -54 -49 -56 -171 -86 -201 -50 -7 9 -23 20 -36 25 -14 5 -23 17 -23
29 0 12 -13 33 -30 47 -36 29 -38 58 -10 113 11 22 16 40 10 40 -5 0 -19 -19
-31 -41 -25 -51 -19 -99 16 -128 14 -10 25 -28 25 -40 0 -13 11 -26 29 -36 16
-8 31 -20 33 -27 9 -24 119 -15 176 14 l50 26 12 -28 c14 -34 91 -65 134 -54
16 4 32 1 41 -6 12 -10 24 -9 59 4 24 9 51 25 61 36 25 28 35 92 19 121 -34
61 0 66 49 9 39 -46 57 -45 80 3 21 44 38 206 24 232 -21 42 -81 106 -102 111
-17 4 -24 15 -29 47 -4 23 -19 57 -33 76 l-26 34 22 19 c29 22 95 24 183 4 35
-8 104 -18 153 -21 50 -4 142 -15 206 -26 64 -10 130 -19 147 -19 19 0 82 -26
157 -65 70 -36 133 -65 141 -65 17 0 68 -47 75 -69 3 -9 38 -18 99 -27 115
-16 204 -18 195 -4 -3 6 -28 10 -56 10 -36 0 -54 5 -69 20 -11 11 -31 20 -44
20 -27 0 -96 27 -96 38 0 13 -54 32 -77 26 -39 -11 -173 71 -173 106 0 5 -10
10 -22 10 -13 0 -34 9 -48 20 l-25 20 30 2 c61 4 78 -2 143 -50 37 -28 88 -60
115 -72 26 -12 56 -33 66 -46 10 -13 28 -24 39 -24 12 0 56 -11 99 -24 98 -30
143 -38 143 -26 0 5 -12 12 -27 16 -16 3 -68 16 -116 30 -48 13 -93 24 -99 24
-5 0 -19 11 -29 24 -11 14 -50 39 -87 56 -37 18 -94 54 -127 81 -33 27 -77 63
-98 80 l-37 30 -34 -20 c-57 -36 -273 -26 -421 19 -33 10 -92 21 -130 25 -118
11 -128 14 -120 38 3 12 11 41 17 65 5 23 14 42 19 42 5 0 9 5 9 10 0 17 -46
11 -62 -7 -8 -10 -20 -33 -28 -50 -7 -18 -16 -33 -20 -33 -15 0 -37 46 -43 88
-4 36 -3 41 9 31 18 -15 119 -6 140 12 26 21 54 86 54 123 0 23 8 43 23 59 12
13 27 32 33 43 11 18 13 17 42 -13 24 -27 38 -33 71 -33 22 0 55 6 73 14 18 8
51 18 73 23 34 7 40 12 47 43 4 19 5 51 2 71 -5 36 -5 37 47 55 90 32 127 83
99 135 -8 13 -7 25 0 40 13 23 2 44 -45 92 -23 22 -36 27 -79 27 -31 0 -67 -8
-89 -19 -20 -10 -37 -17 -37 -16 0 2 5 16 10 31 13 34 -9 117 -42 156 -18 20
-35 28 -79 33 -54 6 -57 5 -106 -35z m92 10 c3 -6 17 -7 30 -4 13 3 32 1 43
-5 43 -23 60 -146 28 -194 -16 -24 -23 -27 -50 -21 -17 3 -32 10 -34 15 -5 13
-32 11 -32 -3 0 -6 -3 -8 -7 -5 -10 10 25 44 53 51 32 8 31 26 -2 26 -16 0
-36 -11 -52 -30 -15 -16 -32 -30 -38 -30 -7 0 -22 -12 -33 -27 -11 -16 -21
-22 -21 -16 0 7 -16 31 -36 52 l-35 40 24 38 c52 81 142 145 162 113z m-236
-135 c11 -14 25 -49 31 -78 13 -64 34 -97 60 -97 16 0 20 -7 20 -34 0 -33 -2
-35 -52 -46 -29 -6 -73 -14 -98 -17 -44 -5 -47 -4 -88 41 -59 63 -57 105 10
209 26 41 35 47 63 47 24 0 39 -7 54 -25z m532 -55 c10 -6 19 -17 19 -24 0 -7
11 -18 25 -24 30 -14 31 -23 5 -47 -24 -21 -26 -35 -6 -35 8 0 18 -9 21 -21
16 -50 -125 -140 -165 -105 -8 8 -25 17 -37 20 -36 11 -38 38 -4 66 50 42 62
114 16 96 -14 -5 -15 -9 -5 -21 15 -18 5 -35 -21 -35 -12 0 -19 -7 -19 -20 0
-10 -9 -24 -19 -30 -34 -18 -45 -11 -17 11 14 11 26 29 26 40 0 28 -19 23 -31
-7 -5 -15 -12 -24 -15 -21 -6 5 16 56 43 100 34 54 132 84 184 57z m-451 -60
c19 -38 14 -55 -7 -27 -12 14 -26 67 -18 67 2 0 14 -18 25 -40z m-273 9 c6 -6
9 -28 6 -50 -5 -37 -2 -43 46 -91 28 -28 51 -58 51 -67 -1 -22 -43 -104 -57
-108 -6 -2 -8 14 -5 47 4 46 3 50 -17 50 -12 0 -21 6 -21 15 0 8 -4 15 -9 15
-16 0 -24 -21 -12 -33 16 -16 14 -54 -4 -54 -10 0 -15 10 -15 28 0 32 -16 47
-33 30 -9 -9 -9 -14 1 -20 15 -9 13 -53 -3 -58 -5 -1 -18 24 -27 56 -10 33
-30 73 -44 91 l-27 32 21 36 c11 20 36 45 55 54 20 10 38 22 42 28 8 13 38 13
52 -1z m349 -37 c-15 -15 -16 -15 -16 4 0 28 24 52 28 28 2 -9 -3 -24 -12 -32z
m114 14 c-6 -8 -18 -12 -26 -9 -19 7 -7 23 18 23 17 0 18 -3 8 -14z m20 -26
c0 -5 -5 -10 -11 -10 -5 0 -7 5 -4 10 3 6 8 10 11 10 2 0 4 -4 4 -10z m-73
-22 c-3 -8 -6 -5 -6 6 -1 11 2 17 5 13 3 -3 4 -12 1 -19z m-723 -33 c8 -8 30
-18 48 -21 18 -4 38 -13 45 -21 6 -8 16 -12 22 -9 15 10 51 -16 51 -36 0 -10
-4 -18 -10 -18 -5 0 -10 -11 -10 -24 0 -16 -5 -23 -17 -22 -10 0 -19 -8 -21
-19 -2 -11 -10 -24 -18 -28 -18 -11 -18 -37 2 -65 15 -22 14 -22 -23 -22 -21
0 -58 -9 -82 -20 -41 -19 -45 -19 -78 -4 -71 34 -109 134 -58 154 32 12 31 16
-2 33 l-27 14 22 12 c12 6 22 20 22 30 0 12 19 30 53 49 61 36 61 36 81 17z
m614 -71 c12 -4 22 -13 22 -20 0 -8 7 -17 15 -20 23 -9 18 -109 -8 -156 -28
-52 -65 -65 -113 -42 -39 20 -104 103 -104 134 0 23 38 70 57 70 8 0 26 9 40
20 26 21 51 24 91 14z m271 -22 c55 -27 75 -62 67 -115 -6 -42 -9 -45 -43 -52
-19 -3 -55 -16 -80 -28 l-44 -22 -37 21 c-54 32 -70 63 -53 109 32 90 113 127
190 87z m-702 -64 c-3 -8 -6 -5 -6 6 -1 11 2 17 5 13 3 -3 4 -12 1 -19z m150
-25 c-3 -10 -5 -2 -5 17 0 19 2 27 5 18 2 -10 2 -26 0 -35z m-174 -3 c3 -11 1
-23 -5 -26 -5 -4 -8 -22 -6 -41 4 -31 3 -33 -9 -17 -14 19 -18 86 -6 97 11 12
21 8 26 -13z m124 -32 c-3 -7 -5 -2 -5 12 0 14 2 19 5 13 2 -7 2 -19 0 -25z
m126 -16 c-22 -5 -27 6 -12 24 12 15 14 14 20 -3 4 -12 1 -19 -8 -21z m66 -62
c29 -29 48 -40 70 -40 38 0 45 -11 36 -66 -9 -60 -45 -94 -101 -94 -28 0 -46
6 -59 20 -10 11 -23 20 -30 20 -16 0 -52 52 -69 100 -12 36 -12 42 3 53 10 6
20 20 24 30 5 12 17 17 46 17 34 0 47 -7 80 -40z m-333 -31 c24 -6 44 -15 44
-19 0 -9 -32 -52 -95 -130 l-50 -61 -65 7 c-36 4 -75 14 -88 22 -21 14 -22 20
-16 71 8 66 26 91 68 91 17 0 40 7 50 15 24 18 90 19 152 4z m135 -67 c5 -16
28 -42 49 -58 22 -16 46 -46 55 -67 13 -33 13 -41 1 -65 -8 -15 -23 -35 -33
-44 -24 -22 -111 -49 -118 -38 -3 5 -26 12 -52 16 -129 19 -152 92 -55 173 25
20 61 52 81 72 45 45 59 47 72 11z m234 -194 c-10 -45 -46 -108 -62 -108 -25
0 -53 34 -53 65 l1 30 28 -35 c16 -19 31 -33 33 -30 3 3 10 25 17 50 11 38 25
59 39 60 2 0 0 -15 -3 -32z m-460 -78 c45 -12 115 -42 115 -50 0 -3 -4 -11 -9
-19 -7 -11 -30 -12 -117 -6 l-109 7 0 39 -1 39 41 0 c22 0 58 -5 80 -10z m305
-18 c0 -16 9 -37 20 -47 26 -24 11 -42 -21 -25 -14 8 -45 10 -88 7 -45 -4 -59
-3 -44 3 12 5 25 20 29 34 4 18 18 29 47 40 57 20 57 20 57 -12z m-200 8 c13
-8 13 -10 -2 -10 -9 0 -20 5 -23 10 -8 13 5 13 25 0z m610 -62 c103 -27 132
-30 272 -32 116 -1 159 -4 163 -13 3 -9 -7 -13 -31 -13 -21 0 -33 -4 -29 -10
3 -5 15 -10 25 -10 10 0 22 -5 26 -11 5 -9 -13 -10 -67 -6 -113 8 -429 46
-469 56 -19 5 -56 12 -83 16 -26 3 -45 10 -42 15 8 12 -36 20 -56 9 -30 -16
-33 -10 -8 17 23 25 27 25 104 19 44 -4 132 -20 195 -37z m-550 12 c-19 -12
-30 -12 -30 -1 0 10 31 20 40 14 2 -2 -2 -8 -10 -13z m230 -39 c0 -17 -25 -30
-40 -20 -13 8 -13 10 0 19 19 12 40 13 40 1z m-76 -21 c16 -16 -26 -11 -54 6
l-25 15 35 -6 c19 -3 39 -10 44 -15z m-54 -15 c7 -8 21 -15 31 -15 23 0 119
-90 119 -112 0 -20 -20 -28 -70 -28 -28 0 -47 -7 -66 -25 -15 -14 -32 -24 -38
-22 -6 2 -20 28 -30 57 -13 36 -29 58 -48 69 -56 32 -21 91 53 91 20 0 42 -7
49 -15z m125 -43 c4 -10 -6 -5 -24 12 -17 17 -31 31 -31 33 0 10 49 -31 55
-45z m-366 -29 c18 -22 25 -25 45 -15 55 25 106 -12 106 -75 0 -40 -3 -45 -32
-59 -18 -8 -48 -26 -67 -39 -41 -30 -114 -34 -142 -9 -10 9 -33 23 -51 32 -38
20 -45 41 -28 93 11 32 20 40 71 60 33 13 59 27 59 31 0 16 19 7 39 -19z m48
11 c-3 -3 -12 -4 -19 -1 -8 3 -5 6 6 6 11 1 17 -2 13 -5z m420 -146 c12 -11
34 -38 49 -59 25 -37 26 -41 14 -83 -7 -24 -9 -49 -6 -55 4 -5 2 -12 -3 -15
-5 -3 -7 -23 -4 -44 4 -30 1 -39 -18 -50 -19 -13 -24 -11 -43 11 -11 14 -35
32 -53 41 -18 9 -46 36 -63 61 -17 25 -35 45 -40 45 -17 0 -40 46 -44 87 -4
37 -1 42 38 67 36 24 47 27 96 21 34 -4 63 -14 77 -27z m-419 -138 c-11 -33
-28 -49 -28 -28 0 13 27 58 35 58 2 0 -1 -14 -7 -30z m172 5 c0 -8 -4 -15 -9
-15 -13 0 -22 16 -14 24 11 11 23 6 23 -9z m26 -32 c-10 -10 -19 5 -10 18 6
11 8 11 12 0 2 -7 1 -15 -2 -18z m-50 -13 c8 0 14 -5 14 -11 0 -6 9 -8 20 -4
19 6 19 4 8 -20 -8 -19 -9 -28 0 -37 13 -13 17 -5 27 55 3 20 9 37 14 37 19 0
62 -66 75 -115 2 -11 12 -39 20 -62 21 -56 8 -83 -51 -113 -35 -17 -50 -20
-66 -12 -12 5 -42 10 -67 10 -99 2 -119 44 -68 146 18 36 38 66 45 66 16 0 16
10 3 45 -6 15 -7 32 -3 38 5 8 9 6 11 -5 2 -10 10 -18 18 -18z m-82 -74 c-3
-14 -10 -26 -15 -26 -5 0 -6 7 -4 15 3 8 7 22 10 31 9 27 17 9 9 -20z"/>
<path d="M4341 1918 c-41 -55 -39 -79 9 -132 22 -24 40 -51 40 -61 0 -10 5
-35 12 -56 6 -22 9 -41 6 -44 -3 -3 -28 5 -56 17 l-52 23 0 73 c0 84 -16 131
-53 155 -40 26 -51 21 -30 -14 17 -26 18 -37 10 -75 -10 -43 -11 -44 -47 -38
-23 4 -50 0 -74 -10 -43 -18 -53 -15 -66 20 -5 13 -16 24 -25 24 -12 0 -15
-12 -15 -54 0 -47 4 -57 26 -75 32 -25 108 -28 167 -7 37 14 38 13 63 -19 14
-18 37 -36 52 -40 69 -17 342 -193 432 -279 47 -46 162 -126 179 -126 5 0 24
-13 41 -29 l31 -28 -52 -39 c-46 -33 -62 -39 -128 -46 -92 -9 -198 -45 -241
-82 -18 -15 -30 -29 -27 -32 2 -3 29 4 58 16 30 11 73 20 97 20 l43 0 -25 -33
c-15 -19 -26 -40 -26 -48 0 -21 134 45 188 92 29 25 66 43 120 59 42 12 93 31
113 42 33 19 42 19 108 8 39 -6 71 -14 71 -17 0 -3 -11 -18 -25 -35 -14 -16
-25 -41 -25 -55 0 -14 -9 -36 -20 -50 -22 -28 -25 -55 -11 -82 11 -20 3 -63
-10 -55 -15 9 -23 -27 -11 -47 9 -15 8 -19 -9 -24 -22 -7 -59 18 -59 40 0 39
-36 123 -65 152 -27 27 -41 33 -76 33 -50 0 -141 -46 -160 -81 -10 -19 -16
-20 -66 -14 -73 9 -147 -2 -179 -27 l-26 -21 64 -60 63 -61 -50 -11 c-101 -23
-152 -69 -140 -126 5 -22 3 -31 -10 -36 -14 -5 -16 -14 -11 -50 8 -61 30 -98
67 -113 27 -11 47 -11 128 2 53 9 103 19 112 23 15 6 15 1 0 -57 -10 -35 -24
-76 -33 -93 -8 -16 -18 -47 -22 -67 -5 -30 -3 -40 16 -57 26 -25 29 -25 54 -6
25 19 44 19 44 0 0 -8 6 -15 13 -15 22 0 142 122 168 170 23 43 24 44 27 18 4
-33 2 -32 44 -12 43 20 114 125 129 189 7 34 8 74 2 127 -9 79 -4 98 25 98 9
0 13 -7 9 -20 -6 -24 12 -26 53 -5 29 15 30 15 30 -10 0 -48 27 -83 73 -96 23
-7 59 -25 80 -42 29 -22 45 -28 66 -24 l28 6 -9 -47 c-6 -31 -19 -56 -37 -72
-47 -41 -75 -107 -75 -176 -1 -53 4 -68 36 -120 l36 -59 54 -1 c67 -2 83 7
109 58 29 57 35 132 15 200 -9 31 -16 65 -16 75 0 11 -11 29 -23 42 -21 19
-23 29 -20 74 3 29 9 70 15 92 l10 40 29 -35 c37 -44 37 -33 -1 28 -35 57 -42
135 -14 146 13 5 15 15 10 49 -6 38 -4 45 20 66 l26 23 37 -34 c35 -34 126
-76 138 -64 3 3 -14 14 -37 25 l-44 19 40 7 c61 10 63 13 7 14 -48 1 -55 4
-100 50 -64 66 -73 78 -65 85 3 4 9 36 13 72 7 72 22 95 81 125 39 20 88 25
88 10 0 -5 21 -12 48 -16 26 -4 54 -13 64 -22 10 -9 18 -10 22 -4 9 14 -34 41
-67 41 -15 0 -41 7 -57 15 -38 20 -72 12 -132 -31 l-48 -34 0 33 c0 41 -35 77
-73 77 -15 0 -27 2 -27 3 0 2 9 30 20 62 17 49 18 67 11 116 -12 71 -20 88
-66 127 -19 17 -35 41 -35 52 0 23 -10 26 -28 8 -20 -20 -14 -63 13 -88 25
-24 33 -72 16 -113 -6 -16 -10 -14 -32 17 -35 50 -67 72 -145 102 -38 14 -85
32 -104 39 -19 8 -46 14 -59 15 l-25 0 27 -28 c15 -15 38 -57 52 -92 35 -90
45 -101 118 -139 36 -18 73 -43 81 -56 14 -21 13 -24 -24 -54 l-40 -32 -177
16 c-180 15 -262 33 -298 65 -11 9 -54 40 -95 67 -42 28 -82 58 -89 67 -7 9
-43 37 -80 63 -36 26 -86 68 -111 93 -44 45 -45 45 -46 120 -3 159 -59 290
-125 290 -10 0 -31 -19 -48 -42z m98 -26 c11 -21 16 -43 13 -49 -4 -6 -14 11
-23 38 -8 27 -14 49 -12 49 1 0 11 -17 22 -38z m-28 -30 c14 -36 3 -39 -27 -7
-28 30 -27 68 2 44 9 -7 20 -24 25 -37z m-62 -30 c1 -7 -3 -10 -9 -7 -5 3 -10
21 -9 38 1 31 1 31 9 7 4 -14 8 -31 9 -38z m101 -34 c0 -13 -23 -5 -28 10 -2
7 2 10 12 6 9 -3 16 -11 16 -16z m-60 -18 c0 -5 -2 -10 -4 -10 -3 0 -8 5 -11
10 -3 6 -1 10 4 10 6 0 11 -4 11 -10z m98 -84 c-7 -11 -15 -41 -18 -66 l-6
-45 -17 31 c-9 18 -20 51 -23 75 -7 40 -6 43 9 31 13 -12 18 -10 29 7 12 20
14 20 25 5 9 -13 10 -22 1 -38z m-218 -16 c0 -5 3 -17 6 -27 3 -10 -3 -3 -15
15 -11 17 -25 32 -30 32 -5 0 -12 7 -15 16 -4 11 2 10 24 -6 17 -12 30 -25 30
-30z m-144 -8 c-8 -7 -25 8 -37 31 -11 21 -10 21 15 -2 14 -14 24 -26 22 -29z
m-52 13 c3 -8 1 -15 -4 -15 -6 0 -10 7 -10 15 0 8 2 15 4 15 2 0 6 -7 10 -15z
m353 -97 c25 -20 13 -29 -17 -11 -16 9 -30 20 -30 24 0 4 -13 9 -30 13 -16 3
-30 10 -30 15 0 11 84 -22 107 -41z m159 -86 c254 -207 342 -270 400 -288 23
-7 52 -22 63 -33 l21 -21 -34 0 c-20 0 -45 9 -61 23 -16 12 -47 33 -70 47 -95
57 -109 67 -149 103 -22 21 -83 70 -133 109 -51 38 -93 73 -93 77 0 4 -11 13
-25 19 -14 6 -25 16 -25 21 0 13 60 -19 106 -57z m1040 -29 c22 -51 17 -50
-18 1 -17 26 -37 50 -44 53 -7 2 -15 11 -18 19 -11 30 67 -42 80 -73z m-328
52 c22 -28 46 -104 40 -131 -2 -12 -13 6 -28 46 -13 36 -30 75 -38 88 -19 30
1 28 26 -3z m57 -52 c27 -64 35 -113 19 -113 -9 0 -14 11 -14 28 0 16 -6 50
-14 75 -17 56 -12 61 9 10z m49 -37 c9 -27 16 -59 15 -70 0 -12 -8 6 -18 39
-10 33 -22 69 -26 80 -5 13 -5 17 2 10 6 -5 18 -32 27 -59z m34 11 c17 -55 25
-130 13 -122 -6 3 -11 21 -11 39 0 19 -7 53 -15 76 -18 50 -18 53 -6 45 5 -3
14 -20 19 -38z m155 -50 c-4 -6 -8 -22 -9 -35 -4 -33 -14 -41 -14 -11 0 37 11
69 21 63 5 -3 6 -11 2 -17z m-82 -101 c-7 -25 -9 -16 -9 44 0 70 1 72 9 31 5
-26 5 -58 0 -75z m36 7 c-3 -10 -5 -4 -5 12 0 17 2 24 5 18 2 -7 2 -21 0 -30z
m76 -86 c74 3 78 2 87 -22 17 -44 -17 -183 -52 -212 -24 -20 -79 2 -140 55
-30 27 -69 54 -86 61 -18 8 -32 17 -32 21 0 19 13 40 25 40 7 0 15 9 18 20 6
24 65 52 87 42 8 -4 50 -6 93 -5z m-233 -56 c0 -23 -14 -41 -32 -41 -11 0 -28
-4 -38 -10 -22 -12 -125 5 -154 26 -19 13 -19 13 3 21 31 12 221 15 221 4z
m-353 -72 c-13 -4 -35 -14 -48 -22 -31 -20 -115 -35 -105 -19 4 7 18 12 31 12
13 0 33 12 48 29 28 34 66 44 85 22 11 -13 9 -17 -11 -22z m400 -39 c30 -28
58 -48 63 -45 10 6 50 -42 50 -61 0 -8 -10 -14 -25 -14 -28 0 -75 -20 -75 -32
0 -4 9 -8 20 -8 11 0 20 5 20 10 0 6 6 10 14 10 20 0 14 -25 -13 -54 -13 -14
-21 -32 -18 -40 12 -30 -80 -76 -152 -76 -65 0 -96 28 -87 79 4 25 1 44 -9 58
-14 20 -13 24 10 51 15 18 25 42 25 61 0 38 65 111 100 111 13 0 45 -21 77
-50z m-607 -80 c-29 -22 -89 -45 -97 -36 -17 17 49 53 102 55 18 0 18 -1 -5
-19z m177 -51 c3 -12 16 -41 28 -65 21 -41 21 -44 4 -44 -12 0 -19 9 -21 27
-4 38 -80 80 -116 64 -28 -13 -32 -14 -32 -2 0 12 69 39 103 40 21 1 30 -5 34
-20z m73 -73 c0 -19 -2 -18 -20 9 -27 40 -26 68 0 36 11 -13 20 -33 20 -45z
m-115 20 c36 -15 47 -36 20 -36 -8 0 -15 5 -15 10 0 6 -7 10 -15 10 -8 0 -15
5 -15 11 0 6 -7 9 -15 6 -8 -4 -17 -2 -20 3 -9 14 21 12 60 -4z m-155 -112
c28 -35 56 -64 63 -64 7 0 4 -5 -6 -11 -9 -6 -14 -15 -11 -21 5 -7 -5 -8 -32
-3 -21 4 -52 9 -67 11 -36 5 -47 12 -47 30 0 8 -6 14 -13 14 -21 0 -110 97
-104 113 3 9 27 19 59 24 65 11 83 0 158 -93z m17 60 c29 -20 38 -32 38 -55 0
-16 -1 -29 -2 -29 -1 0 -9 13 -18 29 -8 16 -24 32 -35 36 -22 7 -48 45 -31 45
6 0 27 -12 48 -26z m752 -18 c-11 -39 -6 -71 10 -62 5 3 11 -4 14 -15 9 -33
27 -12 28 34 2 31 4 23 11 -33 18 -146 13 -162 -64 -201 -49 -25 -54 -24 -95
11 -18 17 -44 30 -56 30 -53 0 -98 70 -78 123 11 29 163 114 193 109 12 -2 22
6 28 24 15 39 21 25 9 -20z m40 12 c0 -13 -4 -32 -8 -42 -11 -29 -24 -2 -16
34 8 35 25 40 24 8z m-585 -51 c17 -19 40 -52 50 -75 16 -36 17 -46 7 -70
l-13 -27 -14 27 c-8 16 -33 38 -56 49 -100 51 -121 86 -70 113 41 23 62 19 96
-17z m84 -14 c57 -62 68 -85 76 -162 l6 -65 -32 30 c-52 46 -58 56 -52 81 7
26 -26 105 -59 141 -19 21 -19 22 -2 22 10 0 39 -21 63 -47z m117 -37 c-16 -7
-32 -11 -35 -9 -8 7 24 23 45 22 15 0 13 -3 -10 -13z m83 -8 c-9 -13 -23 -24
-32 -26 -23 -5 -10 23 17 36 31 15 31 15 15 -10z m-625 -58 c7 -19 19 -30 36
-32 37 -4 37 -39 1 -60 -34 -19 -39 -38 -11 -38 10 0 21 9 24 19 4 18 64 44
76 34 3 -2 -12 -17 -32 -34 -41 -34 -47 -49 -18 -49 12 0 21 8 24 23 3 21 4
21 12 3 6 -13 5 -21 -3 -24 -14 -4 -16 -32 -2 -32 5 0 14 9 20 20 6 11 15 20
21 20 6 0 -4 -18 -21 -40 -33 -41 -39 -44 -177 -74 -89 -19 -124 -10 -147 39
-16 34 -22 95 -8 95 24 1 33 17 21 43 -19 42 0 71 63 96 78 30 107 28 121 -9z
m457 -122 c11 -12 20 -31 20 -42 0 -29 -43 -115 -76 -154 l-29 -34 1 129 c2
169 -1 156 34 138 16 -8 39 -25 50 -37z m-120 -44 c29 -45 23 -85 -26 -182
-41 -80 -146 -189 -152 -158 -4 21 -15 20 -53 -3 -27 -16 -34 -17 -45 -6 -30
30 -15 85 50 184 24 36 47 75 50 86 3 11 17 25 30 31 20 9 23 8 19 -6 -5 -19
21 -45 37 -35 5 3 10 16 10 29 0 13 9 33 20 46 11 13 20 29 20 37 0 24 18 14
40 -23z m580 -6 c0 -35 -15 -67 -25 -56 -6 6 14 88 22 88 1 0 3 -15 3 -32z
m-667 -8 c-3 -12 -8 -19 -11 -16 -5 6 5 36 12 36 2 0 2 -9 -1 -20z m238 -47
c-9 -16 -10 -16 -11 -1 0 9 3 25 7 35 7 16 8 17 11 1 2 -10 -1 -25 -7 -35z
m-331 2 c0 -8 -10 -19 -21 -26 -21 -11 -21 -11 -3 15 22 30 24 31 24 11z m802
-42 c22 -20 23 -41 1 -107 -30 -92 -49 -127 -97 -179 l-28 -31 -18 22 c-58 71
-16 248 70 293 43 23 49 23 72 2z m44 -196 c-5 -72 -30 -130 -58 -135 -32 -6
-31 36 1 99 17 34 31 73 31 89 0 16 3 36 7 46 13 34 25 -28 19 -99z m-96 -126
c0 -11 -47 -31 -54 -24 -10 10 25 42 40 36 8 -3 14 -8 14 -12z"/>
<path d="M6016 873 c-4 -5 -24 -13 -44 -19 l-37 -12 37 -1 c31 -1 68 18 68 35
0 7 -16 5 -24 -3z"/>
<path d="M5924 745 c3 -8 8 -37 12 -65 l7 -51 -56 -54 c-48 -47 -66 -58 -97
-57 -3 0 -16 3 -30 6 -24 7 -24 6 -6 -8 30 -24 56 -19 114 21 35 24 61 52 76
81 22 44 22 47 8 94 -9 26 -20 48 -25 48 -5 0 -7 -7 -3 -15z"/>
</g>
</svg>
